<svg xmlns="http://www.w3.org/2000/svg" width="168.125" height="25" viewBox="0 0 168.125 25">
  <g id="Group_136" data-name="Group 136" transform="translate(-1174 -2224)">
    <g id="Group_125" data-name="Group 125" transform="translate(-472.159 -103)">
      <g id="Group_124" data-name="Group 124" transform="translate(1646.159 2327)">
        <g id="Component_52_1" data-name="Component 52 – 1" transform="translate(0 0)">
          <path id="Path_31" data-name="Path 31" d="M251.183,38.9a9.047,9.047,0,0,0-.572-2.99,6.3,6.3,0,0,0-3.6-3.6,9,9,0,0,0-2.989-.572c-1.313-.06-1.733-.074-5.077-.074s-3.763.014-5.077.074a9,9,0,0,0-2.989.572,6.292,6.292,0,0,0-3.6,3.6,9.022,9.022,0,0,0-.573,2.99c-.059,1.313-.074,1.732-.074,5.076s.015,3.764.074,5.077a9.021,9.021,0,0,0,.573,2.989,6.291,6.291,0,0,0,3.6,3.6,9.045,9.045,0,0,0,2.989.572c1.314.06,1.733.074,5.077.074s3.764-.014,5.077-.074a9.045,9.045,0,0,0,2.989-.572,6.3,6.3,0,0,0,3.6-3.6,9.046,9.046,0,0,0,.572-2.989c.06-1.313.074-1.733.074-5.077S251.243,40.211,251.183,38.9Zm-2.216,10.053a6.811,6.811,0,0,1-.424,2.286,4.078,4.078,0,0,1-2.337,2.337,6.814,6.814,0,0,1-2.287.424c-1.3.059-1.687.071-4.976.071s-3.678-.012-4.976-.071a6.819,6.819,0,0,1-2.287-.424,4.078,4.078,0,0,1-2.337-2.337,6.817,6.817,0,0,1-.423-2.286c-.059-1.3-.072-1.688-.072-4.977s.013-3.677.072-4.976a6.817,6.817,0,0,1,.423-2.286,4.078,4.078,0,0,1,2.337-2.337,6.8,6.8,0,0,1,2.287-.424c1.3-.059,1.688-.072,4.976-.072s3.678.013,4.976.072a6.791,6.791,0,0,1,2.287.424,4.078,4.078,0,0,1,2.337,2.337A6.812,6.812,0,0,1,248.967,39c.059,1.3.071,1.688.071,4.976S249.026,47.652,248.967,48.951Z" transform="translate(-226.628 -31.661)" fill="#fff"/>
          <path id="Path_32" data-name="Path 32" d="M239.745,38.453a6.323,6.323,0,1,0,6.324,6.324A6.323,6.323,0,0,0,239.745,38.453Zm0,10.429a4.1,4.1,0,1,1,4.1-4.105A4.105,4.105,0,0,1,239.745,48.882Z" transform="translate(-227.43 -32.463)" fill="#fff"/>
          <path id="Path_33" data-name="Path 33" d="M247.847,36.495a1.478,1.478,0,1,0,1.477,1.477A1.478,1.478,0,0,0,247.847,36.495Z" transform="translate(-228.959 -32.231)" fill="#fff"/>
        </g>
        <g id="Component_54_1" data-name="Component 54 – 1" transform="translate(89.795 0)">
          <path id="Path_34" data-name="Path 34" d="M330.4,31.45H312.139a3.369,3.369,0,0,0-3.369,3.369V53.081a3.368,3.368,0,0,0,3.369,3.368h9.006l.016-8.933H318.84a.548.548,0,0,1-.548-.546l-.011-2.88a.547.547,0,0,1,.548-.549h2.317V40.759c0-3.229,1.972-4.987,4.852-4.987h2.364a.548.548,0,0,1,.548.548v2.428a.548.548,0,0,1-.548.548h-1.451c-1.566,0-1.87.744-1.87,1.837v2.409h3.442a.548.548,0,0,1,.544.612l-.341,2.88a.547.547,0,0,1-.544.483h-3.085l-.016,8.934h5.36a3.369,3.369,0,0,0,3.368-3.369V34.819A3.368,3.368,0,0,0,330.4,31.45Z" transform="translate(-308.77 -31.45)" fill="#fff"/>
        </g>
        <g id="Group_122" data-name="Group 122" transform="translate(132.096 0)">
          <g id="Component_55_12" data-name="Component 55 – 12" transform="translate(0 0)">
            <path id="Path_35" data-name="Path 35" d="M373.4,31.45H356.2c-9.414,0-9.414,2.682-9.414,9.277v6.446c0,6.272,1.333,9.277,9.414,9.277h17.2c7.3,0,9.414-1.757,9.414-9.277V40.727C382.813,33.785,382.457,31.45,373.4,31.45Zm-12.281,17.4V38.731l9.71,5.043Z" transform="translate(-346.784 -31.45)" fill="#fff"/>
          </g>
        </g>
        <g id="Component_53_1" data-name="Component 53 – 1" transform="translate(41.558 0)">
          <path id="Path_113" data-name="Path 113" d="M294.984,34.41a12.587,12.587,0,0,1-3.625.993,6.334,6.334,0,0,0,2.776-3.492,12.647,12.647,0,0,1-4.008,1.532A6.317,6.317,0,0,0,279.372,39.2a17.923,17.923,0,0,1-13.009-6.594,6.318,6.318,0,0,0,1.953,8.426,6.281,6.281,0,0,1-2.858-.789c0,.026,0,.053,0,.079a6.316,6.316,0,0,0,5.062,6.189,6.334,6.334,0,0,1-1.662.221,6.271,6.271,0,0,1-1.187-.114,6.317,6.317,0,0,0,5.9,4.383,12.748,12.748,0,0,1-9.344,2.613A17.859,17.859,0,0,0,273.9,56.45c11.608,0,17.956-9.618,17.956-17.957q0-.41-.019-.817A12.808,12.808,0,0,0,294.984,34.41Z" transform="translate(-264.222 -31.45)" fill="#fff"/>
        </g>
      </g>
    </g>
  </g>
</svg>
