<svg xmlns="http://www.w3.org/2000/svg" width="35.346" height="31.16" viewBox="0 0 35.346 31.16">
  <path id="Path_114" data-name="Path 114" d="M-957.451,193.811l3.314-13.909a.96.96,0,0,0-.18-.817.96.96,0,0,0-.753-.365h-25.586l-.646-2.713a3.119,3.119,0,0,0-3.044-2.4h-4.15a.96.96,0,0,0-.96.96.96.96,0,0,0,.96.96h4.15a1.206,1.206,0,0,1,1.177.929l.818,3.434c0,.005,0,.011,0,.016l3.314,13.909c0,.008,0,.016.007.024l.68,2.854a3.5,3.5,0,0,0,.48,1.112,3.662,3.662,0,0,0-2.091,3.3,3.661,3.661,0,0,0,3.657,3.657,3.661,3.661,0,0,0,3.657-3.657,3.634,3.634,0,0,0-.44-1.738h9.542a3.635,3.635,0,0,0-.44,1.738,3.661,3.661,0,0,0,3.657,3.657,3.661,3.661,0,0,0,3.657-3.657,3.661,3.661,0,0,0-3.657-3.657h-14.632a1.562,1.562,0,0,1-1.525-1.2l-.4-1.695h18.5A.96.96,0,0,0-957.451,193.811Zm-7.992-6.217-.4,5.035h-4.8l-.4-5.035Zm-5.751-1.92-.4-5.035h6.7l-.4,5.035Zm7.677,1.92h5.575l-1.2,5.035h-4.775Zm6.032-1.92h-5.88l.4-5.035h6.679Zm-16.034-5.035.4,5.035H-979l-1.2-5.035Zm-2.781,22.2a1.74,1.74,0,0,1-1.738-1.738,1.74,1.74,0,0,1,1.738-1.738,1.74,1.74,0,0,1,1.738,1.738A1.74,1.74,0,0,1-976.3,202.842Zm17.715-1.738a1.74,1.74,0,0,1-1.738,1.738,1.74,1.74,0,0,1-1.738-1.738,1.74,1.74,0,0,1,1.738-1.738A1.74,1.74,0,0,1-958.586,201.1Zm-19.955-13.511h5.574l.4,5.035h-4.774Z" transform="translate(989.456 -173.602)" fill="#fff"/>
</svg>
