<svg xmlns="http://www.w3.org/2000/svg" width="31.16" height="31.16" viewBox="0 0 31.16 31.16">
  <g id="Group_130" data-name="Group 130" transform="translate(-1864.321 -21)">
    <path id="Path_115" data-name="Path 115" d="M-2185.2,192.97l0-.021c-.01-.1-.02-.193-.031-.289l-.006-.041q-.016-.134-.035-.268c0-.018-.006-.036-.008-.054-.012-.085-.025-.169-.039-.254l-.01-.062q-.02-.122-.042-.244c0-.022-.009-.044-.012-.067-.015-.079-.03-.159-.046-.238l-.015-.071c-.016-.077-.032-.155-.049-.232l-.017-.075q-.026-.114-.053-.227l-.02-.076c-.019-.075-.037-.149-.057-.224l-.021-.078c-.02-.073-.04-.147-.061-.22-.008-.027-.016-.053-.024-.08-.021-.072-.042-.144-.065-.216l-.025-.08q-.034-.108-.069-.215c-.009-.026-.018-.053-.027-.079-.024-.071-.048-.142-.073-.213l-.029-.079q-.038-.106-.078-.211l-.03-.079c-.027-.07-.054-.14-.082-.209l-.032-.08c-.028-.069-.056-.138-.085-.206l-.035-.081q-.044-.1-.089-.2l-.037-.081c-.03-.067-.061-.134-.092-.2l-.039-.081-.1-.2-.042-.083c-.032-.065-.065-.129-.1-.193l-.045-.085c-.034-.063-.067-.126-.1-.189l-.048-.087c-.034-.062-.068-.123-.1-.184l-.052-.089c-.035-.06-.07-.119-.105-.179l-.057-.093c-.035-.057-.07-.115-.106-.172l-.062-.1-.106-.165-.068-.1-.105-.156-.075-.108c-.034-.049-.069-.1-.1-.148l-.083-.115-.073-.1,0-.006v0l-.008-.011,0-.005,0-.006,0,0-.006-.008-.01-.013-.013-.018h0l-.036-.046-.015-.019-.013-.017h0v0l0,0-.073-.095-.089-.116-.112-.141-.055-.068q-.169-.208-.344-.41l-.027-.031-.149-.169-.056-.062-.123-.134-.069-.073-.112-.119-.076-.077-.105-.107h0l0,0h0q-.5-.5-1.027-.939a15.462,15.462,0,0,0-9.99-3.624,15.478,15.478,0,0,0-11.017,4.563,15.478,15.478,0,0,0-4.563,11.016q0,.669.058,1.333s0,.01,0,.015q.014.158.031.315c0,.015,0,.029.005.044q.016.143.034.285c0,.021.006.042.009.062.012.089.024.177.037.265,0,.025.008.05.012.075.013.084.026.167.041.251,0,.029.01.058.016.086.014.079.029.159.044.238l.02.094q.023.114.047.229c.007.034.015.068.023.1.016.073.033.147.05.22.009.036.018.071.027.107q.026.107.053.213l.03.111c.019.069.037.138.057.207.01.038.022.077.034.115.019.067.039.134.059.2.012.039.025.079.038.118q.03.1.063.2c.013.04.027.081.041.121.021.064.043.127.065.19.015.042.03.083.045.124.022.062.045.123.068.185.016.042.032.084.049.126.023.06.047.121.071.181.017.043.035.085.052.128.024.059.048.118.073.176l.056.13c.025.057.05.115.076.172s.04.087.06.131.052.112.079.168l.064.132q.04.082.081.164l.068.133c.027.053.055.107.083.16s.048.089.072.133.056.1.085.156l.076.134c.029.051.058.1.088.153l.08.134.09.149.084.134.092.145.088.134.094.141.092.134.1.138.1.134.1.134.1.133.1.131.1.132.065.083.072.089,0,0,.055.067,0,0h0l.059.07.107.127.089.1.108.124.091.1.109.121.094.1.11.117.051.054h0l.056.057.072.074.125.126.069.068.143.138.052.05q.1.094.2.186h0a15.54,15.54,0,0,0,10.493,4.064,15.541,15.541,0,0,0,10.493-4.064,15.521,15.521,0,0,0,3.715-5.115,15.457,15.457,0,0,0,1.372-6.4Q-2185.119,193.751-2185.2,192.97Zm-1.79,2.309q-.019.365-.057.727-.019.181-.043.361a13.572,13.572,0,0,1-1.089,3.819l0,.008q-.064.141-.131.28l-.044.091q-.049.1-.1.2l-.05.1c-.037.072-.075.143-.113.214l-.037.069q-.075.138-.155.275l-.041.069q-.06.1-.123.206l-.056.092q-.059.095-.119.189l-.054.083c-.058.088-.116.175-.175.262l-.008.011c-.057.083-.116.165-.175.247l-.059.081q-.066.09-.133.179l-.065.085c-.05.065-.1.128-.151.192l-.046.058q-.1.123-.2.243l-.052.06q-.078.091-.158.182l-.071.079-.063.069-.019-.033c-.047-.084-.095-.168-.144-.251l-.006-.01q-.076-.128-.155-.253l-.037-.058q-.078-.122-.159-.243l-.03-.043c-.05-.073-.1-.145-.151-.216l-.031-.044q-.085-.118-.173-.234l-.04-.052q-.089-.116-.181-.23l0-.005q-.094-.116-.191-.229l-.043-.05q-.1-.11-.193-.218l-.034-.037q-.09-.1-.183-.195l-.035-.037q-.1-.105-.206-.207l-.047-.045q-.107-.1-.217-.206l0,0q-.111-.1-.225-.2l-.049-.043q-.111-.1-.225-.19l-.038-.031q-.105-.086-.213-.169l-.039-.03q-.118-.09-.238-.178l-.052-.038c-.082-.059-.165-.118-.249-.176-.1-.068-.2-.134-.3-.2l-.038-.025q-.145-.091-.291-.178l-.052-.031q-.145-.085-.292-.165l-.052-.028q-.15-.081-.3-.158l-.035-.017q-.155-.077-.312-.15l-.017-.008c-.105-.049-.212-.1-.319-.14l-.048-.021q-.155-.065-.311-.124l-.058-.022c-.1-.039-.208-.077-.313-.113l-.021-.008.029-.022.09-.068.05-.038.094-.075.041-.033.131-.111.016-.014.112-.1.043-.04.083-.078.047-.046.078-.078.045-.046.082-.087.036-.039c.038-.042.076-.084.113-.127l.024-.029.086-.1.04-.049.068-.086.041-.053.065-.087.038-.053.07-.1.029-.042c.032-.047.063-.094.094-.142l.024-.039c.023-.036.045-.072.067-.108l.033-.056q.028-.047.055-.095l.033-.06.052-.1.031-.057.058-.114.02-.041c.025-.051.049-.1.073-.155l.02-.047.049-.114.025-.06c.014-.034.028-.069.041-.1l.024-.063c.013-.035.026-.071.039-.107l.021-.059q.022-.066.043-.133c0-.011.008-.023.011-.034q.026-.083.05-.168c0-.017.01-.034.014-.051q.016-.06.032-.12c.005-.021.01-.043.015-.064.009-.037.018-.074.026-.111.005-.022.01-.044.014-.066.008-.039.016-.077.023-.116,0-.02.008-.04.011-.06q.014-.077.027-.155c0-.007,0-.014,0-.021.009-.059.017-.118.024-.178l.006-.055c0-.042.009-.084.013-.126q0-.033.006-.066c0-.039.007-.079.009-.118,0-.022,0-.045,0-.067,0-.042,0-.084.006-.126,0-.02,0-.039,0-.059q0-.092,0-.184a6.427,6.427,0,0,0-6.42-6.42,6.427,6.427,0,0,0-6.42,6.42q0,.093,0,.184c0,.02,0,.039,0,.059,0,.042,0,.084.006.126,0,.022,0,.045,0,.067,0,.04.006.079.009.118l.006.066c0,.042.009.084.014.126l.006.054c.008.06.016.119.025.178l0,.02c.008.052.017.1.027.157l.011.059c.007.039.015.078.023.117l.014.065c.009.037.017.075.026.112.005.021.01.042.015.064q.015.061.032.121l.014.051q.024.084.05.168l.011.033q.022.067.044.134l.021.059q.019.054.039.107l.024.063c.013.035.027.069.041.1l.024.06c.016.039.033.077.05.115l.02.045c.023.052.048.1.073.156l.019.038q.029.059.059.117l.029.056.053.1.033.058c.018.032.037.064.056.1l.032.054.068.11.023.037c.031.048.062.1.094.143l.027.039.072.1.037.051.066.089.04.052.07.088.038.047.089.106.022.026q.056.065.113.128l.034.037.084.089.044.045.079.079.046.045.084.08.042.039.115.1.014.012c.043.038.088.075.132.111l.039.032.1.076.048.037.092.068.028.021-.02.007q-.158.055-.314.114l-.057.022q-.157.06-.312.125l-.047.02c-.107.045-.214.092-.32.141l-.016.007q-.157.073-.313.151l-.034.017q-.153.077-.3.159l-.051.027q-.148.081-.293.166l-.052.03q-.147.087-.292.178l-.038.025c-.1.065-.2.131-.3.2-.084.057-.167.116-.249.176l-.052.038q-.12.088-.238.178l-.039.03q-.107.083-.212.169l-.039.031q-.114.093-.225.19l-.049.043c-.076.066-.15.132-.224.2h0q-.11.1-.217.206l-.047.046q-.1.1-.206.207l-.035.037q-.092.1-.182.194l-.035.038q-.1.108-.193.218l-.043.051c-.064.075-.127.15-.189.226l0,.006c-.062.076-.122.154-.183.231l-.04.053c-.059.077-.117.155-.173.233l-.03.043q-.077.108-.152.218l-.029.043q-.081.121-.16.244l-.035.056c-.053.084-.105.168-.156.254l0,0c-.051.085-.1.172-.149.259l-.018.032,0,0q-.118-.129-.232-.262l-.055-.063q-.112-.131-.221-.265l0-.006,0-.006c-.047-.058-.093-.116-.139-.175l-.087-.112-.091-.119-.084-.114-.088-.121-.081-.115-.086-.124-.079-.116-.083-.126-.076-.117-.081-.128-.073-.118-.079-.131-.07-.118-.077-.133-.067-.119-.074-.135-.064-.119-.071-.137-.061-.12-.069-.139-.058-.121-.066-.141-.056-.122-.063-.143-.053-.122q-.031-.072-.06-.145l-.05-.123c-.02-.049-.038-.1-.057-.146l-.048-.124-.054-.148-.045-.124-.051-.149c-.014-.042-.028-.083-.042-.125s-.032-.1-.048-.151-.027-.083-.039-.125-.03-.1-.045-.153l-.037-.125c-.014-.051-.028-.1-.042-.153s-.023-.084-.034-.126-.026-.1-.039-.154l-.031-.127q-.018-.078-.035-.156c-.01-.042-.02-.085-.029-.127l-.032-.157c-.009-.042-.017-.085-.026-.127l-.03-.159c-.008-.042-.015-.084-.023-.126s-.018-.107-.026-.161-.014-.084-.02-.126-.015-.108-.023-.161-.012-.084-.017-.127-.013-.108-.019-.162-.01-.084-.015-.127-.011-.109-.016-.164-.009-.084-.012-.126-.009-.112-.013-.168c0-.041-.006-.082-.009-.123,0-.059-.007-.118-.01-.177,0-.038,0-.076-.006-.114,0-.066,0-.132-.007-.2,0-.031,0-.062,0-.094q0-.146,0-.292a13.641,13.641,0,0,1,4.022-9.709,13.641,13.641,0,0,1,9.709-4.022,13.958,13.958,0,0,1,1.7.1q.672.082,1.328.229a13.626,13.626,0,0,1,6.435,3.449c.052.049.1.1.153.15l.092.09q.082.082.162.165a13.941,13.941,0,0,1,1.043,1.216l.031.039,0,.005.041.052.013.016h0c.035.047.069.094.1.142l.062.084c.038.053.075.106.113.16l.05.071q.067.1.132.2l.021.031q.075.115.148.23l.026.043c.039.063.078.125.116.188l.046.078.092.156.052.091.081.144.053.1c.025.046.05.092.074.139s.036.069.053.1.047.091.07.136l.053.107.066.135.051.11q.031.067.062.135l.05.112.058.134c.016.038.032.076.048.114s.037.089.055.134.031.077.046.116l.052.134.044.118c.016.045.033.09.049.134l.042.119c.016.045.031.09.047.135l.04.12c.015.045.029.09.043.136l.037.121c.014.045.027.091.041.136l.035.122.038.137.033.123c.012.046.023.092.035.138s.021.082.031.124l.032.139.028.124.03.14.025.124c.01.047.018.094.027.141s.016.082.023.124.016.095.024.142.014.083.021.125.014.1.021.143.012.083.018.124.013.1.019.145.01.082.015.124.011.1.016.147.009.082.013.123.009.1.014.151.007.08.01.12.007.1.011.156.005.078.008.116c0,.055.006.109.008.164,0,.036,0,.073.005.109,0,.06,0,.121.005.182,0,.031,0,.062,0,.092,0,.092,0,.183,0,.275Q-2186.969,194.913-2186.988,195.279Zm-14,12.994-.093,0-.191-.006-.11-.005-.173-.009-.116-.008-.167-.013-.117-.01-.167-.016-.115-.012-.175-.021-.1-.013-.2-.029-.074-.011-.274-.045-.078-.014-.2-.037-.107-.022-.167-.035-.115-.026-.159-.037-.117-.028-.156-.04-.116-.031-.158-.044-.111-.031-.17-.051-.1-.029-.247-.08-.052-.018-.225-.078-.1-.036-.164-.061-.108-.042-.152-.06-.111-.046-.148-.062-.11-.048-.148-.066-.106-.049-.155-.073-.1-.046-.184-.092-.065-.033-.245-.129-.067-.037-.177-.1-.089-.052-.153-.09-.095-.057-.146-.09-.1-.06-.145-.093-.092-.06-.15-.1-.082-.056-.079-.056q-.134-.094-.265-.192l-.074-.055q-.155-.116-.307-.237l-.066-.053-.134-.111.012-.025c.019-.038.039-.074.058-.112.032-.063.064-.126.1-.188l.066-.12c.032-.058.065-.116.1-.174l.072-.121q.051-.084.1-.168l.076-.118c.036-.056.074-.111.112-.167.025-.037.051-.075.077-.112.041-.058.083-.116.125-.173.024-.033.047-.066.072-.1.053-.071.108-.141.164-.21l.042-.053q.105-.129.215-.255l.065-.073c.053-.059.105-.118.159-.176l.088-.092c.048-.05.1-.1.146-.15l.1-.1.146-.139.1-.094c.05-.045.1-.09.151-.134l.1-.089c.053-.045.107-.09.162-.134l.1-.081c.061-.048.123-.1.185-.142l.084-.063q.137-.1.278-.2a9.667,9.667,0,0,1,4.206-1.607,9.832,9.832,0,0,1,1.28-.083,9.684,9.684,0,0,1,5.485,1.691q.141.1.277.2l.089.067c.061.046.121.091.181.138l.1.083c.053.043.107.087.16.132l.1.09.15.133.1.094.146.139.1.1c.049.049.1.1.146.15l.087.092c.054.058.107.117.16.176l.065.073q.11.126.215.255l.041.052c.056.07.111.14.166.212l.071.1c.042.058.085.116.126.174.026.037.051.074.076.111.038.056.076.111.113.168l.075.117c.035.056.07.112.1.169l.072.12c.034.058.067.117.1.176.022.039.044.078.065.118.034.063.068.127.1.191l.055.108.013.027q-.1.079-.193.157l-.037.03q-.121.1-.243.188l-.083.061-.165.121-.1.072-.149.1-.111.075-.144.1-.116.074-.143.091-.119.073-.143.086-.122.071-.143.082-.124.069-.145.078-.125.066-.146.075-.127.063-.149.072-.126.06-.153.07-.125.056-.159.068-.122.051-.169.068-.114.045-.2.073-.089.033q-.143.051-.287.1l-.079.026-.211.068-.114.034-.179.053-.125.035-.17.046-.131.033-.166.041-.135.031-.165.037-.136.028-.165.033-.137.025-.166.029-.138.023-.167.025-.138.02-.169.022-.137.016-.172.018-.135.013-.177.014-.132.01-.185.011-.124.007-.207.007-.1,0q-.156,0-.311,0T-2200.983,208.272Zm-4.287-15a4.576,4.576,0,0,1,4.571-4.571,4.576,4.576,0,0,1,4.571,4.571,4.576,4.576,0,0,1-4.571,4.571A4.576,4.576,0,0,1-2205.27,193.268Z" transform="translate(4080.6 -157.965)" fill="#fff"/>
  </g>
</svg>
