<svg id="Component_53_1" data-name="Component 53 – 1" xmlns="http://www.w3.org/2000/svg" width="24.794" height="20.15" viewBox="0 0 24.794 20.15">
  <path id="Path_113" data-name="Path 113" d="M289.016,33.836a10.145,10.145,0,0,1-2.922.8,5.1,5.1,0,0,0,2.237-2.814,10.193,10.193,0,0,1-3.231,1.235,5.092,5.092,0,0,0-8.668,4.64,14.445,14.445,0,0,1-10.485-5.315,5.092,5.092,0,0,0,1.574,6.791,5.062,5.062,0,0,1-2.3-.636c0,.021,0,.043,0,.064a5.091,5.091,0,0,0,4.08,4.988,5.1,5.1,0,0,1-1.34.178,5.054,5.054,0,0,1-.957-.092,5.092,5.092,0,0,0,4.752,3.533,10.275,10.275,0,0,1-7.531,2.106,14.466,14.466,0,0,0,22.27-12.187q0-.331-.015-.658A10.323,10.323,0,0,0,289.016,33.836Z" transform="translate(-264.222 -31.45)" fill="red"/>
</svg>
