<svg id="Component_52_1" data-name="Component 52 – 1" xmlns="http://www.w3.org/2000/svg" width="19.851" height="19.85" viewBox="0 0 19.851 19.85">
  <path id="Path_31" data-name="Path 31" d="M246.419,37.494a7.291,7.291,0,0,0-.461-2.41,5.076,5.076,0,0,0-2.9-2.9,7.253,7.253,0,0,0-2.409-.461c-1.058-.048-1.4-.06-4.092-.06s-3.033.011-4.092.06a7.253,7.253,0,0,0-2.409.461,5.072,5.072,0,0,0-2.9,2.9,7.271,7.271,0,0,0-.462,2.41c-.048,1.058-.06,1.4-.06,4.092s.012,3.034.06,4.092a7.27,7.27,0,0,0,.462,2.409,5.07,5.07,0,0,0,2.9,2.9,7.29,7.29,0,0,0,2.409.461c1.059.048,1.4.06,4.092.06s3.034-.011,4.092-.06a7.29,7.29,0,0,0,2.409-.461,5.074,5.074,0,0,0,2.9-2.9,7.29,7.29,0,0,0,.461-2.409c.048-1.058.06-1.4.06-4.092S246.467,38.553,246.419,37.494Zm-1.786,8.1a5.489,5.489,0,0,1-.342,1.842,3.287,3.287,0,0,1-1.884,1.884,5.492,5.492,0,0,1-1.843.342c-1.046.048-1.36.058-4.01.058s-2.964-.01-4.011-.058a5.5,5.5,0,0,1-1.843-.342,3.287,3.287,0,0,1-1.884-1.884,5.5,5.5,0,0,1-.341-1.842c-.048-1.047-.058-1.361-.058-4.011s.011-2.963.058-4.011a5.5,5.5,0,0,1,.341-1.842,3.287,3.287,0,0,1,1.884-1.884,5.477,5.477,0,0,1,1.843-.342c1.046-.048,1.361-.058,4.011-.058s2.964.011,4.01.058a5.473,5.473,0,0,1,1.843.342,3.287,3.287,0,0,1,1.884,1.884,5.49,5.49,0,0,1,.342,1.842c.048,1.047.058,1.361.058,4.011S244.68,44.55,244.633,45.6Z" transform="translate(-226.628 -31.661)" fill="red"/>
  <path id="Path_32" data-name="Path 32" d="M238.518,38.453a5.1,5.1,0,1,0,5.1,5.1A5.1,5.1,0,0,0,238.518,38.453Zm0,8.406a3.309,3.309,0,1,1,3.308-3.309A3.309,3.309,0,0,1,238.518,46.859Z" transform="translate(-228.592 -33.625)" fill="red"/>
  <path id="Path_33" data-name="Path 33" d="M247.56,36.495a1.191,1.191,0,1,0,1.191,1.191A1.191,1.191,0,0,0,247.56,36.495Z" transform="translate(-232.337 -33.059)" fill="red"/>
</svg>
