<svg xmlns="http://www.w3.org/2000/svg" width="20.149" height="20.15" viewBox="0 0 20.149 20.15">
  <g id="Component_54_1" data-name="Component 54 – 1" transform="translate(0)">
    <path id="Path_34" data-name="Path 34" d="M326.2,31.45H311.485a2.715,2.715,0,0,0-2.715,2.715V48.885a2.715,2.715,0,0,0,2.715,2.715h7.259l.013-7.2h-1.871a.442.442,0,0,1-.441-.44l-.009-2.321a.441.441,0,0,1,.441-.443h1.867V38.953a3.664,3.664,0,0,1,3.911-4.02h1.905a.441.441,0,0,1,.441.441v1.957a.441.441,0,0,1-.441.441h-1.169c-1.262,0-1.507.6-1.507,1.481V41.2h2.774a.442.442,0,0,1,.439.493l-.275,2.321a.441.441,0,0,1-.439.39H321.9l-.013,7.2h4.32a2.715,2.715,0,0,0,2.715-2.715V34.165A2.715,2.715,0,0,0,326.2,31.45Z" transform="translate(-308.77 -31.45)" fill="red"/>
  </g>
</svg>
